<?xml version="1.0" encoding="utf-8"?>
<!-- Generator: Adobe Illustrator 16.0.0, SVG Export Plug-In . SVG Version: 6.00 Build 0)  -->
<!DOCTYPE svg PUBLIC "-//W3C//DTD SVG 1.1//EN" "http://www.w3.org/Graphics/SVG/1.1/DTD/svg11.dtd">
<svg version="1.1" id="Layer_1" xmlns="http://www.w3.org/2000/svg" xmlns:xlink="http://www.w3.org/1999/xlink" x="0px" y="0px"
	 width="960px" height="560px" viewBox="0 0 960 560" enable-background="new 0 0 960 560" xml:space="preserve">
<g>
	<path d="M306.052,286.551l3.784,1.2c-0.58,2.109-1.545,3.675-2.894,4.7c-1.349,1.023-3.061,1.536-5.135,1.536
		c-2.566,0-4.676-0.877-6.328-2.63c-1.653-1.755-2.479-4.152-2.479-7.192c0-3.217,0.831-5.715,2.492-7.495
		c1.661-1.78,3.845-2.67,6.552-2.67c2.365,0,4.285,0.699,5.761,2.096c0.879,0.826,1.538,2.013,1.978,3.561l-3.863,0.923
		c-0.229-1.002-0.705-1.793-1.43-2.373c-0.725-0.581-1.607-0.871-2.644-0.871c-1.432,0-2.595,0.515-3.487,1.543
		s-1.338,2.695-1.338,4.997c0,2.444,0.44,4.184,1.318,5.22c0.879,1.037,2.022,1.557,3.428,1.557c1.037,0,1.93-0.329,2.677-0.989
		C305.19,289.003,305.727,287.967,306.052,286.551"/>
</g>
<path d="M319.686,278.839l2.663,7.172h-5.274L319.686,278.839z M317.668,274.33l-7.528,19.326h4.14l1.595-4.39h7.726l1.687,4.39
	h4.246l-7.74-19.326H317.668z"/>
<polygon points="344.366,274.33 340.897,287.514 337.392,274.33 331.551,274.33 331.551,293.656 335.177,293.656 335.177,278.442 
	339,293.656 342.758,293.656 346.594,278.442 346.594,293.656 350.22,293.656 350.22,274.33 "/>
<rect x="354.517" y="274.33" width="3.902" height="19.327"/>
<polygon points="362.242,274.488 362.242,293.657 375.847,293.657 375.847,290.401 366.145,290.401 366.145,274.488 "/>
<polygon points="378.196,274.488 378.196,293.657 391.801,293.657 391.801,290.401 382.098,290.401 382.098,274.488 "/>
<g>
	<path d="M397.272,283.98c0,2.188,0.506,3.847,1.516,4.977c1.011,1.13,2.294,1.694,3.85,1.694c1.556,0,2.832-0.561,3.83-1.682
		c0.997-1.12,1.496-2.801,1.496-5.043c0-2.214-0.486-3.868-1.457-4.957c-0.971-1.089-2.261-1.634-3.869-1.634
		c-1.609,0-2.905,0.551-3.889,1.654C397.764,280.094,397.272,281.757,397.272,283.98 M393.251,284.112
		c0-1.971,0.295-3.62,0.883-4.957c0.44-0.984,1.04-1.867,1.8-2.65c0.76-0.783,1.593-1.363,2.498-1.74
		c1.205-0.51,2.593-0.765,4.166-0.765c2.848,0,5.127,0.883,6.836,2.65c1.709,1.767,2.564,4.224,2.564,7.369
		c0,3.119-0.848,5.562-2.544,7.323c-1.696,1.764-3.964,2.645-6.803,2.645c-2.874,0-5.159-0.877-6.856-2.63
		C394.1,289.603,393.251,287.189,393.251,284.112"/>
</g>
<polygon points="443.666,274.33 443.666,293.656 458.365,293.656 458.365,290.4 447.567,290.4 447.567,285.141 457.271,285.141 
	457.271,281.885 447.567,281.885 447.567,277.6 457.997,277.6 457.997,274.33 "/>
<g>
	<path d="M465.589,282.504h2.888c1.872,0,3.04-0.08,3.507-0.238c0.466-0.157,0.83-0.43,1.094-0.816
		c0.264-0.389,0.395-0.87,0.395-1.45c0-0.652-0.173-1.176-0.52-1.576c-0.348-0.398-0.838-0.651-1.47-0.758
		c-0.317-0.045-1.266-0.066-2.848-0.066h-3.046V282.504z M461.688,293.657V274.33h8.214c2.065,0,3.566,0.173,4.502,0.52
		c0.936,0.349,1.685,0.965,2.248,1.854c0.562,0.888,0.843,1.903,0.843,3.045c0,1.45-0.426,2.646-1.278,3.593
		c-0.853,0.945-2.128,1.541-3.824,1.786c0.844,0.493,1.541,1.034,2.09,1.622s1.29,1.635,2.222,3.137l2.359,3.771h-4.667
		l-2.821-4.206c-1.002-1.503-1.688-2.449-2.057-2.841s-0.76-0.659-1.173-0.805c-0.413-0.145-1.068-0.217-1.965-0.217h-0.791v8.068
		H461.688z"/>
</g>
<polygon points="492.92,274.33 492.92,287.236 485.01,274.33 481.213,274.33 481.213,293.656 484.839,293.656 484.839,281.054 
	492.63,293.656 496.546,293.656 496.546,274.33 "/>
<path d="M508.793,278.839l2.663,7.172h-5.274L508.793,278.839z M506.775,274.33l-7.527,19.326h4.141l1.594-4.39h7.726l1.687,4.39
	h4.246l-7.737-19.326H506.775z"/>
<g>
	<path d="M525.166,282.504h2.889c1.871,0,3.041-0.08,3.506-0.238c0.467-0.157,0.83-0.43,1.095-0.816
		c0.264-0.389,0.396-0.87,0.396-1.45c0-0.652-0.174-1.176-0.521-1.576c-0.349-0.398-0.839-0.651-1.47-0.758
		c-0.317-0.045-1.267-0.066-2.849-0.066h-3.046V282.504z M521.264,293.657V274.33h8.215c2.064,0,3.565,0.173,4.502,0.52
		c0.936,0.349,1.685,0.965,2.248,1.854c0.562,0.888,0.843,1.903,0.843,3.045c0,1.45-0.427,2.646-1.278,3.593
		c-0.854,0.945-2.128,1.541-3.824,1.786c0.844,0.493,1.541,1.034,2.09,1.622s1.291,1.635,2.222,3.137l2.36,3.771h-4.668l-2.82-4.206
		c-1.002-1.503-1.688-2.449-2.057-2.841c-0.369-0.392-0.761-0.659-1.174-0.805c-0.412-0.145-1.068-0.217-1.964-0.217h-0.792v8.068
		H521.264z"/>
	<path d="M545.18,277.6V290.4h2.914c1.09,0,1.875-0.061,2.359-0.184c0.633-0.159,1.157-0.428,1.575-0.806
		c0.418-0.377,0.759-0.998,1.022-1.864s0.396-2.045,0.396-3.54s-0.132-2.643-0.396-3.441s-0.634-1.424-1.107-1.872
		c-0.475-0.448-1.077-0.752-1.807-0.91c-0.545-0.124-1.612-0.184-3.203-0.184H545.18z M541.277,274.33h7.132
		c1.608,0,2.835,0.122,3.679,0.368c1.135,0.334,2.105,0.929,2.913,1.78c0.81,0.853,1.425,1.896,1.847,3.131
		c0.422,1.235,0.633,2.757,0.633,4.568c0,1.59-0.198,2.961-0.594,4.114c-0.483,1.404-1.174,2.544-2.069,3.414
		c-0.677,0.659-1.591,1.174-2.742,1.543c-0.86,0.271-2.015,0.407-3.455,0.407h-7.343V274.33z"/>
</g>
<rect x="561.21" y="274.33" width="3.901" height="19.327"/>
<g>
	<path d="M577.424,287.368l3.797-0.369c0.229,1.273,0.692,2.209,1.391,2.809c0.699,0.599,1.642,0.896,2.828,0.896
		c1.256,0,2.205-0.266,2.842-0.797s0.955-1.154,0.955-1.866c0-0.456-0.135-0.846-0.401-1.166c-0.269-0.32-0.735-0.6-1.403-0.838
		c-0.459-0.158-1.5-0.439-3.125-0.843c-2.093-0.52-3.561-1.155-4.404-1.912c-1.187-1.062-1.779-2.359-1.779-3.889
		c0-0.984,0.279-1.905,0.837-2.762c0.558-0.857,1.362-1.511,2.413-1.958c1.05-0.448,2.316-0.673,3.803-0.673
		c2.426,0,4.252,0.532,5.479,1.596c1.226,1.062,1.869,2.483,1.932,4.258l-3.902,0.172c-0.168-0.994-0.525-1.708-1.074-2.143
		c-0.551-0.436-1.375-0.652-2.473-0.652c-1.134,0-2.021,0.231-2.664,0.698c-0.412,0.298-0.619,0.698-0.619,1.199
		c0,0.456,0.194,0.85,0.58,1.174c0.492,0.414,1.688,0.844,3.586,1.292s3.303,0.913,4.213,1.391c0.91,0.479,1.621,1.134,2.136,1.965
		c0.514,0.83,0.771,1.857,0.771,3.078c0,1.108-0.307,2.145-0.923,3.112c-0.614,0.967-1.485,1.685-2.61,2.154
		c-1.125,0.472-2.526,0.706-4.205,0.706c-2.443,0-4.32-0.564-5.629-1.694C578.461,291.177,577.678,289.53,577.424,287.368"/>
</g>
<polygon points="593.957,274.33 593.957,277.6 599.691,277.6 599.691,293.656 603.594,293.656 603.594,277.6 609.315,277.6 
	609.315,274.33 "/>
<g>
	<path d="M612.348,274.33h3.903v10.468c0,1.661,0.048,2.736,0.146,3.229c0.166,0.791,0.563,1.428,1.192,1.905
		c0.629,0.479,1.487,0.719,2.577,0.719c1.107,0,1.941-0.227,2.505-0.679c0.563-0.453,0.899-1.009,1.015-1.668
		s0.172-1.754,0.172-3.283V274.33h3.902v10.151c0,2.32-0.105,3.96-0.316,4.917s-0.6,1.768-1.166,2.426
		c-0.567,0.659-1.325,1.185-2.275,1.575c-0.949,0.393-2.188,0.587-3.717,0.587c-1.846,0-3.246-0.213-4.199-0.639
		c-0.954-0.426-1.708-0.98-2.261-1.661c-0.554-0.682-0.919-1.396-1.095-2.143c-0.254-1.107-0.383-2.742-0.383-4.904V274.33z"/>
	<path d="M635.222,277.6V290.4h2.914c1.09,0,1.876-0.061,2.36-0.184c0.633-0.159,1.158-0.428,1.574-0.806
		c0.418-0.377,0.76-0.998,1.022-1.864c0.264-0.866,0.396-2.045,0.396-3.54s-0.132-2.643-0.396-3.441
		c-0.263-0.799-0.634-1.424-1.106-1.872c-0.476-0.448-1.078-0.752-1.807-0.91c-0.545-0.124-1.613-0.184-3.204-0.184H635.222z
		 M631.32,274.33h7.131c1.609,0,2.836,0.122,3.68,0.368c1.133,0.334,2.105,0.929,2.913,1.78c0.809,0.853,1.424,1.896,1.846,3.131
		c0.422,1.235,0.633,2.757,0.633,4.568c0,1.59-0.198,2.961-0.593,4.114c-0.484,1.404-1.174,2.544-2.07,3.414
		c-0.677,0.659-1.591,1.174-2.742,1.543c-0.86,0.271-2.014,0.407-3.455,0.407h-7.342V274.33z"/>
</g>
<rect x="650.713" y="274.33" width="3.902" height="19.327"/>
<g>
	<path d="M662.104,283.98c0,2.188,0.506,3.847,1.517,4.977s2.294,1.694,3.85,1.694s2.832-0.561,3.83-1.682
		c0.998-1.12,1.496-2.801,1.496-5.043c0-2.214-0.485-3.868-1.457-4.957s-2.261-1.634-3.869-1.634s-2.905,0.551-3.889,1.654
		C662.596,280.094,662.104,281.757,662.104,283.98 M658.083,284.112c0-1.971,0.294-3.62,0.883-4.957
		c0.438-0.984,1.039-1.867,1.8-2.65c0.762-0.783,1.594-1.363,2.498-1.74c1.204-0.51,2.594-0.765,4.166-0.765
		c2.848,0,5.126,0.883,6.836,2.65c1.711,1.767,2.564,4.224,2.564,7.369c0,3.119-0.848,5.562-2.545,7.323
		c-1.696,1.764-3.963,2.645-6.803,2.645c-2.873,0-5.158-0.877-6.854-2.63C658.931,289.603,658.083,287.189,658.083,284.112"/>
</g>
<path d="M428.542,285.232v5.168h3.613c1.406,0,2.298-0.039,2.676-0.119c0.58-0.104,1.053-0.361,1.417-0.771
	c0.365-0.408,0.548-0.956,0.548-1.642c0-0.579-0.141-1.072-0.422-1.477c-0.282-0.403-0.688-0.699-1.22-0.883
	c-0.532-0.186-1.685-0.277-3.461-0.277H428.542z M428.542,277.547v4.469h2.558c1.521,0,2.465-0.021,2.835-0.066
	c0.667-0.079,1.193-0.31,1.575-0.691c0.382-0.382,0.574-0.885,0.574-1.509c0-0.6-0.165-1.084-0.495-1.457
	c-0.329-0.373-0.819-0.601-1.47-0.68c-0.387-0.045-1.498-0.065-3.335-0.065H428.542z M424.64,274.33h7.726
	c1.529,0,2.669,0.063,3.421,0.19c0.751,0.127,1.424,0.395,2.017,0.798c0.593,0.403,1.088,0.942,1.483,1.615
	c0.396,0.672,0.594,1.425,0.594,2.261c0,0.904-0.244,1.735-0.732,2.492c-0.488,0.756-1.149,1.323-1.984,1.7
	c1.178,0.343,2.083,0.928,2.716,1.754c0.632,0.825,0.949,1.798,0.949,2.913c0,0.878-0.205,1.734-0.613,2.564
	c-0.409,0.83-0.967,1.493-1.675,1.99c-0.707,0.497-1.58,0.803-2.617,0.917c-0.65,0.071-2.219,0.113-4.706,0.131h-6.579V274.33z"/>
</svg>
