<?xml version="1.0" encoding="utf-8"?>
<!-- Generator: Adobe Illustrator 19.2.1, SVG Export Plug-In . SVG Version: 6.00 Build 0)  -->
<svg version="1.1" id="Layer_1" xmlns="http://www.w3.org/2000/svg" xmlns:xlink="http://www.w3.org/1999/xlink" x="0px" y="0px"
	 viewBox="0 0 383.8 20" style="enable-background:new 0 0 383.8 20;" xml:space="preserve">
<g>
	<path d="M13.1,12.6l3.8,1.2c-0.6,2.1-1.5,3.7-2.9,4.7c-1.3,1-3.1,1.5-5.1,1.5c-2.6,0-4.7-0.9-6.3-2.6C0.8,15.6,0,13.2,0,10.2
		C0,7,0.8,4.5,2.5,2.7S6.3,0,9,0c2.4,0,4.3,0.7,5.8,2.1c0.9,0.8,1.5,2,2,3.6l-3.9,0.9c-0.2-1-0.7-1.8-1.4-2.4S9.9,3.3,8.9,3.3
		c-1.4,0-2.6,0.5-3.5,1.5S4,7.6,4,9.9c0,2.4,0.4,4.2,1.3,5.2s2,1.6,3.4,1.6c1,0,1.9-0.3,2.7-1C12.2,15,12.7,14,13.1,12.6"/>
</g>
<path d="M26.7,4.8l2.7,7.2h-5.3L26.7,4.8z M24.7,0.3l-7.5,19.3h4.1l1.6-4.4h7.7l1.7,4.4h4.2L28.8,0.3H24.7z"/>
<polygon points="51.4,0.3 47.9,13.5 44.4,0.3 38.6,0.3 38.6,19.7 42.2,19.7 42.2,4.4 46,19.7 49.8,19.7 53.6,4.4 53.6,19.7 
	57.2,19.7 57.2,0.3 "/>
<rect x="61.5" y="0.3" width="3.9" height="19.3"/>
<polygon points="69.2,0.5 69.2,19.7 82.8,19.7 82.8,16.4 73.1,16.4 73.1,0.5 "/>
<polygon points="85.2,0.5 85.2,19.7 98.8,19.7 98.8,16.4 89.1,16.4 89.1,0.5 "/>
<g>
	<path d="M104.3,10c0,2.2,0.5,3.8,1.5,5c1,1.1,2.3,1.7,3.9,1.7s2.8-0.6,3.8-1.7s1.5-2.8,1.5-5s-0.5-3.9-1.5-5s-2.3-1.6-3.9-1.6
		s-2.9,0.6-3.9,1.7C104.8,6.1,104.3,7.8,104.3,10 M100.3,10.1c0-2,0.3-3.6,0.9-5c0.4-1,1-1.9,1.8-2.6c0.8-0.8,1.6-1.4,2.5-1.7
		c1.2-0.5,2.6-0.8,4.2-0.8c2.8,0,5.1,0.9,6.8,2.6c1.7,1.8,2.6,4.2,2.6,7.4c0,3.1-0.8,5.6-2.5,7.3c-1.7,1.8-4,2.6-6.8,2.6
		c-2.9,0-5.2-0.9-6.9-2.6C101.1,15.6,100.3,13.2,100.3,10.1"/>
</g>
<polygon points="150.7,0.3 150.7,19.7 165.4,19.7 165.4,16.4 154.6,16.4 154.6,11.1 164.3,11.1 164.3,7.9 154.6,7.9 154.6,3.6 
	165,3.6 165,0.3 "/>
<g>
	<path d="M172.6,8.5h2.9c1.9,0,3-0.1,3.5-0.2c0.5-0.2,0.8-0.4,1.1-0.8s0.4-0.9,0.4-1.5c0-0.7-0.2-1.2-0.5-1.6s-0.8-0.7-1.5-0.8
		c-0.3,0-1.3-0.1-2.8-0.1h-3L172.6,8.5L172.6,8.5z M168.7,19.7V0.3h8.2c2.1,0,3.6,0.2,4.5,0.5s1.7,1,2.2,1.9c0.6,0.9,0.8,1.9,0.8,3
		c0,1.5-0.4,2.6-1.3,3.6c-0.9,0.9-2.1,1.5-3.8,1.8c0.8,0.5,1.5,1,2.1,1.6s1.3,1.6,2.2,3.1l2.4,3.8h-4.7l-2.8-4.2
		c-1-1.5-1.7-2.4-2.1-2.8s-0.8-0.7-1.2-0.8s-1.1-0.2-2-0.2h-0.8v8.1L168.7,19.7L168.7,19.7z"/>
</g>
<polygon points="199.9,0.3 199.9,13.2 192,0.3 188.2,0.3 188.2,19.7 191.8,19.7 191.8,7.1 199.6,19.7 203.5,19.7 203.5,0.3 "/>
<path d="M215.8,4.8l2.7,7.2h-5.3L215.8,4.8z M213.8,0.3l-7.5,19.3h4.1l1.6-4.4h7.7l1.7,4.4h4.2l-7.7-19.3
	C217.9,0.3,213.8,0.3,213.8,0.3z"/>
<g>
	<path d="M232.2,8.5h2.9c1.9,0,3-0.1,3.5-0.2c0.5-0.2,0.8-0.4,1.1-0.8s0.4-0.9,0.4-1.5c0-0.7-0.2-1.2-0.5-1.6s-0.8-0.7-1.5-0.8
		c-0.3,0-1.3-0.1-2.8-0.1h-3L232.2,8.5L232.2,8.5z M228.3,19.7V0.3h8.2c2.1,0,3.6,0.2,4.5,0.5s1.7,1,2.2,1.9c0.6,0.9,0.8,1.9,0.8,3
		c0,1.5-0.4,2.6-1.3,3.6c-0.9,0.9-2.1,1.5-3.8,1.8c0.8,0.5,1.5,1,2.1,1.6s1.3,1.6,2.2,3.1l2.4,3.8H241l-2.8-4.2
		c-1-1.5-1.7-2.4-2.1-2.8s-0.8-0.7-1.2-0.8s-1.1-0.2-2-0.2h-0.8v8.1L228.3,19.7L228.3,19.7z"/>
	<path d="M252.2,3.6v12.8h2.9c1.1,0,1.9-0.1,2.4-0.2c0.6-0.2,1.2-0.4,1.6-0.8c0.4-0.4,0.8-1,1-1.9s0.4-2,0.4-3.5s-0.1-2.6-0.4-3.4
		s-0.6-1.4-1.1-1.9c-0.5-0.4-1.1-0.8-1.8-0.9c-0.5-0.1-1.6-0.2-3.2-0.2L252.2,3.6L252.2,3.6z M248.3,0.3h7.1c1.6,0,2.8,0.1,3.7,0.4
		c1.1,0.3,2.1,0.9,2.9,1.8s1.4,1.9,1.8,3.1s0.6,2.8,0.6,4.6c0,1.6-0.2,3-0.6,4.1c-0.5,1.4-1.2,2.5-2.1,3.4c-0.7,0.7-1.6,1.2-2.7,1.5
		c-0.9,0.3-2,0.4-3.5,0.4h-7.3L248.3,0.3L248.3,0.3z"/>
</g>
<rect x="268.2" y="0.3" width="3.9" height="19.3"/>
<g>
	<path d="M284.4,13.4l3.8-0.4c0.2,1.3,0.7,2.2,1.4,2.8c0.7,0.6,1.6,0.9,2.8,0.9c1.3,0,2.2-0.3,2.8-0.8s1-1.2,1-1.9
		c0-0.5-0.1-0.8-0.4-1.2c-0.3-0.3-0.7-0.6-1.4-0.8c-0.5-0.2-1.5-0.4-3.1-0.8c-2.1-0.5-3.6-1.2-4.4-1.9c-1.2-1.1-1.8-2.4-1.8-3.9
		c0-1,0.3-1.9,0.8-2.8s1.4-1.5,2.4-2c1-0.4,2.3-0.7,3.8-0.7c2.4,0,4.3,0.5,5.5,1.6s1.9,2.5,1.9,4.3L295.7,6c-0.2-1-0.5-1.7-1.1-2.1
		s-1.4-0.7-2.5-0.7s-2,0.2-2.7,0.7c-0.4,0.3-0.6,0.7-0.6,1.2s0.2,0.9,0.6,1.2c0.5,0.4,1.7,0.8,3.6,1.3s3.3,0.9,4.2,1.4
		c0.9,0.5,1.6,1.1,2.1,2c0.5,0.8,0.8,1.9,0.8,3.1c0,1.1-0.3,2.1-0.9,3.1s-1.5,1.7-2.6,2.2s-2.5,0.7-4.2,0.7c-2.4,0-4.3-0.6-5.6-1.7
		C285.5,17.2,284.7,15.5,284.4,13.4"/>
</g>
<polygon points="301,0.3 301,3.6 306.7,3.6 306.7,19.7 310.6,19.7 310.6,3.6 316.3,3.6 316.3,0.3 "/>
<g>
	<path d="M319.3,0.3h3.9v10.5c0,1.7,0,2.7,0.1,3.2c0.2,0.8,0.6,1.4,1.2,1.9s1.5,0.7,2.6,0.7s1.9-0.2,2.5-0.7c0.6-0.5,0.9-1,1-1.7
		s0.2-1.8,0.2-3.3V0.3h3.9v10.2c0,2.3-0.1,4-0.3,4.9s-0.6,1.8-1.2,2.4c-0.6,0.7-1.3,1.2-2.3,1.6c-0.9,0.4-2.2,0.6-3.7,0.6
		c-1.8,0-3.2-0.2-4.2-0.6s-1.7-1-2.3-1.7c-0.6-0.7-0.9-1.4-1.1-2.1c-0.3-1.1-0.4-2.7-0.4-4.9L319.3,0.3L319.3,0.3z"/>
	<path d="M342.2,3.6v12.8h2.9c1.1,0,1.9-0.1,2.4-0.2c0.6-0.2,1.2-0.4,1.6-0.8c0.4-0.4,0.8-1,1-1.9c0.3-0.9,0.4-2,0.4-3.5
		s-0.1-2.6-0.4-3.4s-0.6-1.4-1.1-1.9c-0.5-0.4-1.1-0.8-1.8-0.9c-0.5-0.1-1.6-0.2-3.2-0.2L342.2,3.6L342.2,3.6z M338.3,0.3h7.1
		c1.6,0,2.8,0.1,3.7,0.4c1.1,0.3,2.1,0.9,2.9,1.8s1.4,1.9,1.8,3.1s0.6,2.8,0.6,4.6c0,1.6-0.2,3-0.6,4.1c-0.5,1.4-1.2,2.5-2.1,3.4
		c-0.7,0.7-1.6,1.2-2.7,1.5c-0.9,0.3-2,0.4-3.5,0.4h-7.3L338.3,0.3L338.3,0.3z"/>
</g>
<rect x="357.7" y="0.3" width="3.9" height="19.3"/>
<g>
	<path d="M369.1,10c0,2.2,0.5,3.8,1.5,5s2.3,1.7,3.8,1.7s2.8-0.6,3.8-1.7s1.5-2.8,1.5-5s-0.5-3.9-1.5-5s-2.3-1.6-3.9-1.6
		s-2.9,0.6-3.9,1.7C369.6,6.1,369.1,7.8,369.1,10 M365.1,10.1c0-2,0.3-3.6,0.9-5c0.4-1,1-1.9,1.8-2.6c0.8-0.8,1.6-1.4,2.5-1.7
		c1.2-0.5,2.6-0.8,4.2-0.8c2.8,0,5.1,0.9,6.8,2.6c1.7,1.8,2.6,4.2,2.6,7.4c0,3.1-0.8,5.6-2.5,7.3c-1.7,1.8-4,2.6-6.8,2.6
		c-2.9,0-5.2-0.9-6.9-2.6C365.9,15.6,365.1,13.2,365.1,10.1"/>
</g>
<path d="M135.5,11.2v5.2h3.6c1.4,0,2.3,0,2.7-0.1c0.6-0.1,1.1-0.4,1.4-0.8c0.4-0.4,0.5-1,0.5-1.6s-0.1-1.1-0.4-1.5
	c-0.3-0.4-0.7-0.7-1.2-0.9s-1.7-0.3-3.5-0.3L135.5,11.2L135.5,11.2z M135.5,3.5V8h2.6c1.5,0,2.5,0,2.8-0.1c0.7-0.1,1.2-0.3,1.6-0.7
	c0.4-0.4,0.6-0.9,0.6-1.5s-0.2-1.1-0.5-1.5s-0.8-0.6-1.5-0.7c-0.4,0-1.5-0.1-3.3-0.1L135.5,3.5L135.5,3.5z M131.6,0.3h7.7
	c1.5,0,2.7,0.1,3.4,0.2c0.8,0.1,1.4,0.4,2,0.8s1.1,0.9,1.5,1.6s0.6,1.4,0.6,2.3s-0.2,1.7-0.7,2.5s-1.1,1.3-2,1.7
	c1.2,0.3,2.1,0.9,2.7,1.8c0.6,0.8,0.9,1.8,0.9,2.9c0,0.9-0.2,1.7-0.6,2.6c-0.4,0.8-1,1.5-1.7,2s-1.6,0.8-2.6,0.9
	c-0.6,0.1-2.2,0.1-4.7,0.1h-6.6V0.3H131.6z"/>
</svg>
