<svg id="Layer_1" data-name="Layer 1" xmlns="http://www.w3.org/2000/svg" viewBox="0 0 383.9 20.2"><title>logo-2-01</title><path d="M13.1,12.6l3.8,1.2A8.28,8.28,0,0,1,14,18.5,8.34,8.34,0,0,1,8.9,20a8.29,8.29,0,0,1-6.3-2.6A9.67,9.67,0,0,1,0,10.2C0,7,.8,4.5,2.5,2.7A8.45,8.45,0,0,1,9,0a8.11,8.11,0,0,1,5.8,2.1,7.73,7.73,0,0,1,2,3.6l-3.9.9a4.18,4.18,0,0,0-1.4-2.4,3.92,3.92,0,0,0-2.6-.9A4.54,4.54,0,0,0,5.4,4.8C4.5,5.8,4,7.6,4,9.9s0.4,4.2,1.3,5.2a4.42,4.42,0,0,0,3.4,1.6,3.94,3.94,0,0,0,2.7-1,6.14,6.14,0,0,0,1.7-3.1" transform="translate(0 0.1)"/><path d="M26.7,4.8L29.4,12H24.1Zm-2-4.5L17.2,19.6h4.1l1.6-4.4h7.7l1.7,4.4h4.2L28.8,0.3H24.7Z" transform="translate(0 0.1)"/><polygon points="51.4 0.4 47.9 13.6 44.4 0.4 38.6 0.4 38.6 19.8 42.2 19.8 42.2 4.5 46 19.8 49.8 19.8 53.6 4.5 53.6 19.8 57.2 19.8 57.2 0.4 51.4 0.4"/><rect x="61.5" y="0.4" width="3.9" height="19.3"/><polygon points="69.2 0.6 69.2 19.8 82.8 19.8 82.8 16.5 73.1 16.5 73.1 0.6 69.2 0.6"/><polygon points="85.2 0.6 85.2 19.8 98.8 19.8 98.8 16.5 89.1 16.5 89.1 0.6 85.2 0.6"/><path d="M104.3,10a7.46,7.46,0,0,0,1.5,5,5.07,5.07,0,0,0,3.9,1.7,4.86,4.86,0,0,0,3.8-1.7,7.29,7.29,0,0,0,1.5-5,7.29,7.29,0,0,0-1.5-5,5,5,0,0,0-3.9-1.6,5.07,5.07,0,0,0-3.9,1.7,7.35,7.35,0,0,0-1.4,4.9m-4,.1a12.42,12.42,0,0,1,.9-5A6.77,6.77,0,0,1,103,2.5,6.56,6.56,0,0,1,105.5.8a10.84,10.84,0,0,1,4.2-.8,9.28,9.28,0,0,1,6.8,2.6,10.26,10.26,0,0,1,2.6,7.4c0,3.1-.8,5.6-2.5,7.3a8.89,8.89,0,0,1-6.8,2.6,9.35,9.35,0,0,1-6.9-2.6c-1.8-1.7-2.6-4.1-2.6-7.2" transform="translate(0 0.1)"/><polygon points="150.7 0.4 150.7 19.8 165.4 19.8 165.4 16.5 154.6 16.5 154.6 11.2 164.3 11.2 164.3 8 154.6 8 154.6 3.7 165 3.7 165 0.4 150.7 0.4"/><path d="M172.6,8.5h2.9a20.82,20.82,0,0,0,3.5-.2,2.26,2.26,0,0,0,1.1-.8,2.41,2.41,0,0,0,.4-1.5,2.54,2.54,0,0,0-.5-1.6,2.19,2.19,0,0,0-1.5-.8c-0.3,0-1.3-.1-2.8-0.1h-3v5h-0.1Zm-3.9,11.2V0.3h8.2a15.37,15.37,0,0,1,4.5.5,4.07,4.07,0,0,1,2.2,1.9,5.21,5.21,0,0,1,.8,3,5,5,0,0,1-1.3,3.6,6.78,6.78,0,0,1-3.8,1.8,11.6,11.6,0,0,1,2.1,1.6,16.93,16.93,0,0,1,2.2,3.1l2.4,3.8h-4.7l-2.8-4.2a21.12,21.12,0,0,0-2.1-2.8,2.8,2.8,0,0,0-1.2-.8,8.75,8.75,0,0,0-2-.2h-0.8v8.1h-3.7Z" transform="translate(0 0.1)"/><polygon points="199.9 0.4 199.9 13.3 192 0.4 188.2 0.4 188.2 19.8 191.8 19.8 191.8 7.2 199.6 19.8 203.5 19.8 203.5 0.4 199.9 0.4"/><path d="M215.8,4.8l2.7,7.2h-5.3Zm-2-4.5-7.5,19.3h4.1l1.6-4.4h7.7l1.7,4.4h4.2L217.9,0.3h-4.1Z" transform="translate(0 0.1)"/><path d="M232.2,8.5h2.9a20.82,20.82,0,0,0,3.5-.2,2.26,2.26,0,0,0,1.1-.8,2.41,2.41,0,0,0,.4-1.5,2.54,2.54,0,0,0-.5-1.6,2.19,2.19,0,0,0-1.5-.8c-0.3,0-1.3-.1-2.8-0.1h-3l-0.1,5h0Zm-3.9,11.2V0.3h8.2a15.37,15.37,0,0,1,4.5.5,4.07,4.07,0,0,1,2.2,1.9,5.21,5.21,0,0,1,.8,3,5,5,0,0,1-1.3,3.6,6.78,6.78,0,0,1-3.8,1.8,11.6,11.6,0,0,1,2.1,1.6,16.93,16.93,0,0,1,2.2,3.1l2.4,3.8H241l-2.8-4.2a21.12,21.12,0,0,0-2.1-2.8,2.8,2.8,0,0,0-1.2-.8,8.75,8.75,0,0,0-2-.2h-0.8v8.1h-3.8Z" transform="translate(0 0.1)"/><path d="M252.2,3.6V16.4h2.9a12.53,12.53,0,0,0,2.4-.2,4,4,0,0,0,1.6-.8,3.77,3.77,0,0,0,1-1.9,15.32,15.32,0,0,0,.4-3.5,10.15,10.15,0,0,0-.4-3.4A5,5,0,0,0,259,4.7a3.84,3.84,0,0,0-1.8-.9,19.06,19.06,0,0,0-3.2-.2h-1.8Zm-3.9-3.3h7.1a12.21,12.21,0,0,1,3.7.4A5.94,5.94,0,0,1,262,2.5a8.72,8.72,0,0,1,1.8,3.1,15.1,15.1,0,0,1,.6,4.6,12.24,12.24,0,0,1-.6,4.1,8.93,8.93,0,0,1-2.1,3.4,5.94,5.94,0,0,1-2.7,1.5,11.21,11.21,0,0,1-3.5.4h-7.3l0.1-19.3h0Z" transform="translate(0 0.1)"/><rect x="268.2" y="0.4" width="3.9" height="19.3"/><path d="M284.4,13.4l3.8-.4a4.4,4.4,0,0,0,1.4,2.8,4.1,4.1,0,0,0,2.8.9,4.25,4.25,0,0,0,2.8-.8,2.58,2.58,0,0,0,1-1.9,1.75,1.75,0,0,0-.4-1.2,3,3,0,0,0-1.4-.8c-0.5-.2-1.5-0.4-3.1-0.8a10.76,10.76,0,0,1-4.4-1.9,5.12,5.12,0,0,1-1.8-3.9,5.66,5.66,0,0,1,.8-2.8,5.3,5.3,0,0,1,2.4-2,10.31,10.31,0,0,1,3.8-.7c2.4,0,4.3.5,5.5,1.6a5.59,5.59,0,0,1,1.9,4.3l-3.8.2a3,3,0,0,0-1.1-2.1,4.37,4.37,0,0,0-2.5-.7,4.53,4.53,0,0,0-2.7.7,1.43,1.43,0,0,0-.6,1.2,1.43,1.43,0,0,0,.6,1.2A12,12,0,0,0,293,7.6,20.19,20.19,0,0,1,297.2,9a5.06,5.06,0,0,1,2.1,2,5.94,5.94,0,0,1,.8,3.1,5.86,5.86,0,0,1-.9,3.1,5.62,5.62,0,0,1-2.6,2.2,10.24,10.24,0,0,1-4.2.7,8.51,8.51,0,0,1-5.6-1.7,8.16,8.16,0,0,1-2.4-5" transform="translate(0 0.1)"/><polygon points="301 0.4 301 3.7 306.7 3.7 306.7 19.8 310.6 19.8 310.6 3.7 316.3 3.7 316.3 0.4 301 0.4"/><path d="M319.3,0.3h3.9V10.8a22.94,22.94,0,0,0,.1,3.2,3.47,3.47,0,0,0,1.2,1.9,4,4,0,0,0,2.6.7,3.73,3.73,0,0,0,2.5-.7,2.53,2.53,0,0,0,1-1.7,23.82,23.82,0,0,0,.2-3.3V0.3h3.9V10.5a27,27,0,0,1-.3,4.9,5,5,0,0,1-1.2,2.4,5.59,5.59,0,0,1-2.3,1.6,9.53,9.53,0,0,1-3.7.6,11.68,11.68,0,0,1-4.2-.6,5.77,5.77,0,0,1-2.3-1.7,5.34,5.34,0,0,1-1.1-2.1,20.26,20.26,0,0,1-.4-4.9l0.1-10.4h0Z" transform="translate(0 0.1)"/><path d="M342.2,3.6V16.4h2.9a12.53,12.53,0,0,0,2.4-.2,4,4,0,0,0,1.6-.8,3.77,3.77,0,0,0,1-1.9,11.21,11.21,0,0,0,.4-3.5,10.15,10.15,0,0,0-.4-3.4A5,5,0,0,0,349,4.7a3.84,3.84,0,0,0-1.8-.9,19.06,19.06,0,0,0-3.2-.2h-1.8Zm-3.9-3.3h7.1a12.21,12.21,0,0,1,3.7.4A5.94,5.94,0,0,1,352,2.5a8.72,8.72,0,0,1,1.8,3.1,15.1,15.1,0,0,1,.6,4.6,12.24,12.24,0,0,1-.6,4.1,8.93,8.93,0,0,1-2.1,3.4,5.94,5.94,0,0,1-2.7,1.5,11.21,11.21,0,0,1-3.5.4h-7.3l0.1-19.3h0Z" transform="translate(0 0.1)"/><rect x="357.7" y="0.4" width="3.9" height="19.3"/><path d="M369.1,10a7.46,7.46,0,0,0,1.5,5,4.69,4.69,0,0,0,3.8,1.7,5,5,0,0,0,3.8-1.7,7.29,7.29,0,0,0,1.5-5,7.29,7.29,0,0,0-1.5-5,5,5,0,0,0-3.9-1.6,5.07,5.07,0,0,0-3.9,1.7,8,8,0,0,0-1.3,4.9m-4,.1a12.42,12.42,0,0,1,.9-5,6.77,6.77,0,0,1,1.8-2.6A6.56,6.56,0,0,1,370.3.8a10.84,10.84,0,0,1,4.2-.8,9.28,9.28,0,0,1,6.8,2.6,10.26,10.26,0,0,1,2.6,7.4c0,3.1-.8,5.6-2.5,7.3a8.89,8.89,0,0,1-6.8,2.6,9.35,9.35,0,0,1-6.9-2.6c-1.8-1.7-2.6-4.1-2.6-7.2" transform="translate(0 0.1)"/><path d="M135.5,11.2v5.2h3.6a16.44,16.44,0,0,0,2.7-.1,2.25,2.25,0,0,0,1.9-2.4,2.41,2.41,0,0,0-.4-1.5,2.73,2.73,0,0,0-1.2-.9,12.34,12.34,0,0,0-3.5-.3h-3.1Zm0-7.7V8h2.6a16.48,16.48,0,0,0,2.8-.1,2.64,2.64,0,0,0,1.6-.7,2,2,0,0,0,.6-1.5,2.46,2.46,0,0,0-.5-1.5,2.13,2.13,0,0,0-1.5-.7c-0.4,0-1.5-.1-3.3-0.1l-2.3.1h0Zm-3.9-3.2h7.7a25.57,25.57,0,0,1,3.4.2,4.45,4.45,0,0,1,2,.8,4.63,4.63,0,0,1,1.5,1.6,4.38,4.38,0,0,1,.6,2.3,4.51,4.51,0,0,1-.7,2.5,4.18,4.18,0,0,1-2,1.7,4.37,4.37,0,0,1,2.7,1.8,4.76,4.76,0,0,1,.9,2.9,6.16,6.16,0,0,1-.6,2.6,5.51,5.51,0,0,1-1.7,2,5.38,5.38,0,0,1-2.6.9c-0.6.1-2.2,0.1-4.7,0.1h-6.6V0.3h0.1Z" transform="translate(0 0.1)"/></svg>